
        <svg xmlns="http://www.w3.org/2000/svg" xmlns:xlink="http://www.w3.org/1999/xlink" version="1.1" width="3192" 
        height="3192" viewBox="0 0 3192 3192">
			
			<g transform="scale(9.6) translate(10, 10)">
				<defs id="SvgjsDefs1408"></defs><g id="SvgjsG1409" featureKey="rootContainer" transform="matrix(6.25,0,0,6.25,0.31249597668647766,0)" fill="#111111"><path xmlns="http://www.w3.org/2000/svg" d="M24.95 0a25 25 0 1 0 25 25 25 25 0 0 0-25-25zm0 46.91a22 22 0 1 1 22-22 22 22 0 0 1-22 21.99z"></path><path xmlns="http://www.w3.org/2000/svg" d="M24.95 3.65a21.3 21.3 0 1 0 21.3 21.3 21.33 21.33 0 0 0-21.3-21.3z"></path></g><g id="SvgjsG1410" featureKey="symbolFeature-0" transform="matrix(0.9252158341108234,0,0,0.9252158341108234,98.41393262313292,51.97224092135194)" fill="#d7eef2"><path xmlns="http://www.w3.org/2000/svg" d="M91.267,68.739c0.005-0.027,0.017-0.055,0.021-0.085c1.146-10.874,1.296-22.453-0.952-33.179  c-0.705-3.363-1.827-6.532-3.525-9.522c-2.048-3.608-5.532-5.751-9.083-7.687c-5.474-2.985-11.409-5.25-17.715-5.266  c-3.894-0.01-7.365,1.481-10.604,3.527c-4.768,3.01-7.758,8.732-10.383,13.541c-1.954,3.579-3.755,7.265-5.355,11.017  c-0.536,1.257,1.044,2.694,3.232,3.743c-0.234,0.876-0.53,2.029-0.841,3.345l-0.179-0.014l-1.133,5.171h0.242  c-0.297,1.687-0.534,3.399-0.649,4.979c-3.429,2.325-7.087,5.843-7.455,10.428c-0.708,8.818,0,14.342,0,14.342  s2.125,6.249,5.736,8.649c3.613,2.4,8.854,2.967,10.767,2.684c0.971-0.144,3.22-0.982,5.389-2.179  c-1.904,8.54,0.604,17.705,10.156,19.977c5.926,1.409,10.935,0.886,15.161-1.15c0.383,0.145,0.813,0.228,1.296,0.228  c2.451,0,5.16-1.984,6.052-4.436c0.254-0.7,0.326-1.36,0.251-1.948c1.848-2.248,3.466-4.902,4.878-7.889  c1.927-4.072,3.871-7.417,2.794-11.921c-0.186-0.775-0.394-1.599-0.633-2.445c1.395,0.437,2.492,0.793,2.789,0.925  c0.473,0.21,1.558,0.539,2.781,0.539c0.807,0,1.676-0.143,2.467-0.556c1.34-0.7,2.203-2.013,2.567-3.903  C100.291,74.69,93.443,70.069,91.267,68.739z M42.825,46.307c0.243,0.776,0.881,2.209,2.5,3.462  c0.995,0.771,2.231,1.481,3.225,2.053c0.277,0.159,0.569,0.328,0.82,0.478c-1.914,0.392-6.12,1.771-6.564,2.215  c-0.097,0.096-0.279,0.284-0.493,0.505c-1.216-0.125-1.828,0.008-1.828,0.008s-0.166,0.063-0.447,0.182  c0.096-0.572,0.209-1.209,0.332-1.881h0.115l0.424-2.838c0.293-1.509,0.595-3.008,0.847-4.243  C42.125,46.288,42.483,46.308,42.825,46.307z M37.688,45.176c1.034,0.425,2.152,0.761,3.227,0.952  c-0.14,0.679-0.306,1.501-0.485,2.393l-3.511-0.281C37.199,47.051,37.469,45.999,37.688,45.176z M35.853,53.329h3.652  c-0.152,0.832-0.289,1.615-0.396,2.293c-0.973,0.449-2.363,1.151-3.867,2.096C35.373,56.304,35.591,54.807,35.853,53.329z   M51.425,81.56c-1.904,3.814-5.797,6.509-9.735,6.617c1.749-0.834,3.218-2.011,4.401-3.339c1.18-1.335,2.037-2.854,2.571-4.468  c0.537-1.624,0.774-3.302,0.804-5.074c0.021-0.915,0.038-1.82-0.006-2.708c-0.027-0.886-0.097-1.755-0.233-2.581  c-0.123-0.827-0.323-1.607-0.606-2.294c-0.274-0.693-0.651-1.268-1.124-1.763c-0.476-0.494-1.088-0.895-1.808-1.241  c-0.728-0.335-1.539-0.606-2.418-0.838c-0.659-0.192-1.305-0.214-1.972,0.002c-0.667,0.213-1.346,0.675-1.955,1.279  c-1.231,1.222-2.219,2.874-3.074,4.609c0.021-0.977,0.168-1.956,0.423-2.919c0.255-0.966,0.622-1.919,1.167-2.831  c0.55-0.9,1.296-1.784,2.357-2.396c1.05-0.629,2.394-0.854,3.606-0.689c0.995,0.112,2.046,0.294,3.095,0.655  c1.051,0.348,2.121,0.913,3.043,1.721c0.926,0.804,1.631,1.847,2.114,2.902c0.478,1.064,0.748,2.147,0.927,3.2  c0.32,2.115,0.27,4.145,0.083,6.122C52.904,77.554,52.401,79.678,51.425,81.56z M65.681,84.094  c-3.329,2.021-6.113,4.878-7.916,8.301c-0.932,1.726-1.769,3.506-2.427,5.339c-0.668,1.823-1.144,3.726-1.212,5.632  c-0.061,1.893,0.411,3.835,1.708,5.245c1.274,1.436,3.179,2.228,5.105,2.675c-0.993-0.091-1.985-0.287-2.938-0.642  c-0.949-0.354-1.854-0.882-2.615-1.595c-0.756-0.72-1.344-1.627-1.709-2.613c-0.374-0.986-0.519-2.036-0.547-3.073  c-0.047-2.081,0.441-4.102,1.068-6.026c0.653-1.926,1.505-3.762,2.443-5.545c0.978-1.798,2.202-3.47,3.65-4.915  c1.456-1.438,3.105-2.676,4.895-3.641c1.782-0.979,3.687-1.703,5.633-2.21c1.952-0.485,3.95-0.797,5.949-0.764  c-1.978,0.246-3.909,0.721-5.77,1.36C69.134,82.256,67.347,83.084,65.681,84.094z M79.472,103.211c-2.449,0-5.159,1.985-6.05,4.437  c-0.456,1.251-0.347,2.379,0.193,3.186c-1.213-0.72-1.682-2.23-1.044-3.983c0.892-2.45,3.601-4.436,6.05-4.436  c1.198,0,2.11,0.476,2.627,1.248C80.766,103.376,80.168,103.211,79.472,103.211z M81.267,71.546  c-7.72-3.35-18.409,1.534-24.957,7.604c0.705-3.406,1.158-7.172,0.892-10.415c-0.566-6.907-3.825-9.314-5.1-10.52  c-1.084-1.023-6.424-2.51-8.777-3.018c0.024-0.024,0.045-0.047,0.063-0.064c0.479-0.351,5.667-2.089,6.731-2.089  c0.454,0,0.605-0.21,0.653-0.385c0.125-0.47-0.282-0.704-1.795-1.574c-0.972-0.56-2.181-1.255-3.13-1.989  c-1.306-1.011-1.889-2.158-2.141-2.85c1.014-0.141,1.791-0.54,2.109-1.286c2.317-5.433,5.005-10.768,8.125-15.785  c1.815-2.922,3.843-5.719,6.765-7.608c1.398-0.904,2.449-1.475,3.985-1.985c0.291-0.096,0.588-0.171,0.886-0.242  c-0.375,0.097,0.593-0.088,0.695-0.098c0.094-0.01,0.369-0.009,0.577-0.008c0.072,0.005,0.145,0.012,0.217,0.019  c0.056,0.01,0.116,0.021,0.189,0.034c0.023,0.004,0.042,0.007,0.063,0.012c0.065,0.021,0.14,0.044,0.23,0.072  c0.149,0.045,0.261,0.078,0.345,0.102c0.054,0.022,0.112,0.046,0.18,0.073c1.122,0.454,2.063,0.93,2.817,1.342  c0.682,0.372,1.35,0.771,2.018,1.167c0.061,0.036,0.441,0.3,0.707,0.479c0.123,0.129,0.503,0.499,0.604,0.62  c1.777,2.126,2.695,4.816,3.507,7.848c1.843,6.88,2.138,14.215,2.067,21.303c-0.042,4.155-0.214,8.336-0.65,12.472  c-0.134,1.275,0.985,2.439,2.594,3.338C81.606,69.185,81.43,70.439,81.267,71.546z M86.499,76.832  c-1.09-2.044-2.52-3.822-4.431-4.895c0.16-1.068,0.336-2.311,0.474-3.415c1.372,0.639,2.969,1.095,4.422,1.302  C86.852,71.824,86.689,74.474,86.499,76.832z M98.503,79.491c-0.313,1.622-1.028,2.736-2.125,3.309  c-1.689,0.883-3.876,0.277-4.511-0.005c-0.372-0.165-1.793-0.622-3.423-1.128c-0.343-1.114-0.742-2.245-1.221-3.338  c0.242-2.649,0.451-5.995,0.586-8.411c1.287,0.096,2.377-0.043,2.979-0.47C92.796,70.683,99.35,75.089,98.503,79.491z"></path></g><g id="SvgjsG1411" featureKey="nameFeature-0" transform="matrix(0.8797009371185512,0,0,0.8797009371185512,56,173.44944508275353)" fill="#d7eef2"><path d="M0 40 l0 -30 l14.72 0 l0 2.32 l-12.64 0 l0 11.4 l12.52 0 l0 1.84 l-12.52 0 l0 12.12 l12.92 0 l0 2.32 l-15 0 z M19.615000000000002 40 l0 -3.56 l13.92 -24.2 l-13.92 0 l0 -2.24 l15.6 0 l0 3.56 l-13.8 24.2 l13.8 0 l0 2.24 l-15.6 0 z M47.63 40.36 c-5.04 0 -7.56 -2.64 -7.56 -7.92 l0 -14.8 c0 -2.6667 0.63332 -4.6532 1.9 -5.96 s3.3134 -1.96 6.14 -1.96 c2.5867 0 4.5 0.66 5.74 1.98 s1.86 3.2733 1.86 5.86 l0 14.88 c0 1.3333 -0.14 2.4933 -0.42 3.48 s-0.74 1.8134 -1.38 2.48 s-1.4733 1.16 -2.5 1.48 s-2.2867 0.48 -3.78 0.48 z M53.59 17.52 c0 -0.66668 -0.09328 -1.3468 -0.27996 -2.0401 s-0.49336 -1.3266 -0.92004 -1.9 s-0.99336 -1.04 -1.7 -1.4 s-1.58 -0.54 -2.62 -0.54 c-1.1467 0 -2.1 0.16 -2.86 0.48 s-1.36 0.76668 -1.8 1.34 s-0.75332 1.2466 -0.94 2.02 s-0.28 1.6133 -0.28 2.52 l0 14.2 c0 0.69332 0.08 1.4 0.24 2.12 s0.44668 1.38 0.86 1.98 s0.97332 1.0933 1.68 1.48 s1.5934 0.58 2.66 0.58 c1.1467 0 2.1 -0.15332 2.86 -0.46 s1.3667 -0.72668 1.82 -1.26 s0.78 -1.1666 0.98 -1.9 s0.3 -1.5266 0.3 -2.38 l0 -14.84 z M62.725 31.880000000000003 l0 -3.04 l14.64 0 l0 3.04 l-14.64 0 z M97.1 40 l-0.04 -13.96 l-10.96 0 l0.04 13.96 l-2.32 0 l0 -30 l2.32 0 l-0.04 13.92 l10.96 0 l0.04 -13.92 l2.36 0 l0 30 l-2.36 0 z M106.035 40 l0 -30 l14.72 0 l0 2.32 l-12.64 0 l0 11.4 l12.52 0 l0 1.84 l-12.52 0 l0 12.12 l12.92 0 l0 2.32 l-15 0 z M141.93 40 l-2.2 -8.84 l-9.76 0 l-2.2 8.84 l-2 0 l8.28 -30 l1.72 0 l8.24 30 l-2.08 0 z M134.97 11.879999999999999 l-4.52 17.36 l8.76 0 z M163.665 33.92 c-0.18668 0.82668 -0.46 1.6067 -0.82 2.34 s-0.83332 1.38 -1.42 1.94 s-1.3 1 -2.14 1.32 s-1.82 0.48 -2.94 0.48 l-7.28 0 l0 -30 l7 0 c2.0267 0 3.7267 0.47332 5.1 1.42 s2.26 2.54 2.66 4.78 c0.08 0.42668 0.14668 1.0867 0.2 1.98 s0.09332 1.92 0.12 3.08 s0.04 2.38 0.04 3.66 s-0.02 2.5067 -0.06 3.68 s-0.1 2.2333 -0.18 3.18 s-0.17332 1.66 -0.28 2.14 z M155.70499999999998 12.04 l-4.64 0.000039062 l0 25.8 l5.2 0 c0.72 0 1.36 -0.12668 1.92 -0.38 s1.06 -0.58664 1.5 -0.99996 s0.80668 -0.87332 1.1 -1.38 s0.53332 -1 0.72 -1.48 c0.13332 -0.34668 0.24664 -0.97336 0.33996 -1.88 s0.16 -1.94 0.2 -3.1 s0.06 -2.3933 0.06 -3.7 s-0.02 -2.5334 -0.06 -3.68 s-0.1 -2.16 -0.18 -3.04 s-0.17332 -1.4933 -0.28 -1.84 c-0.16 -0.48 -0.37332 -0.98 -0.64 -1.5 s-0.62 -0.98668 -1.06 -1.4 s-1 -0.75332 -1.68 -1.02 s-1.5133 -0.4 -2.5 -0.4 z M178.76 40.36 c-1.3067 0 -2.4669 -0.17348 -3.4802 -0.52016 s-1.8666 -0.9 -2.56 -1.66 s-1.2066 -1.7533 -1.54 -2.98 s-0.47332 -2.7067 -0.42 -4.44 l2.4 0 c0 0.85332 0.04 1.74 0.12 2.66 s0.29332 1.76 0.64 2.52 s0.87336 1.38 1.58 1.86 s1.6867 0.72 2.94 0.72 c1.0667 0 1.9734 -0.16 2.72 -0.48 s1.3534 -0.74668 1.82 -1.28 s0.79336 -1.16 0.98004 -1.88 s0.28 -1.4667 0.28 -2.24 c0 -0.90668 -0.16668 -1.7 -0.5 -2.38 s-0.77332 -1.2867 -1.32 -1.82 s-1.1867 -1.0066 -1.92 -1.42 s-1.5 -0.78 -2.3 -1.1 c-1.28 -0.50668 -2.4 -1.0067 -3.36 -1.5 s-1.7467 -1.0466 -2.36 -1.66 s-1.0733 -1.3266 -1.38 -2.14 s-0.46 -1.8066 -0.46 -2.98 c0 -2.6667 0.7 -4.6532 2.1 -5.96 s3.4067 -1.96 6.02 -1.96 c2.2667 0 4.06 0.66 5.38 1.98 s1.98 3.3 1.98 5.94 l0 2.2 l-2.24 0 l0 -2.4 c0 -0.82668 -0.1 -1.5934 -0.3 -2.3 s-0.51332 -1.3267 -0.94 -1.86 s-0.96668 -0.95332 -1.62 -1.26 s-1.4333 -0.46 -2.34 -0.46 c-2.1333 0 -3.66 0.56 -4.58 1.68 s-1.34 2.6267 -1.26 4.52 c0.02668 0.82668 0.18 1.5334 0.46 2.12 s0.65332 1.1 1.12 1.54 s1.0267 0.83332 1.68 1.18 s1.38 0.69336 2.18 1.04 c0.93332 0.4 1.86 0.82668 2.78 1.28 s1.78 1.0133 2.58 1.68 c0.8 0.69332 1.46 1.5 1.98 2.42 s0.78 2.06 0.78 3.42 c0 2.64 -0.67332 4.62 -2.02 5.94 s-3.22 1.98 -5.62 1.98 z M191.935 40 l0 -30 l14.72 0 l0 2.32 l-12.64 0 l0 11.4 l12.52 0 l0 1.84 l-12.52 0 l0 12.12 l12.92 0 l0 2.32 l-15 0 z M220.82999999999998 12.2 l0 27.8 l-2.32 0 l0 -27.8 l-6.52 0 l0 -2.2 l15.36 0 l0 2.2 l-6.52 0 z"></path></g><g id="SvgjsG1412" featureKey="sloganFeature-0" transform="matrix(0.9228976811119346,0,0,0.9228976811119346,97,224.51475279240037)" fill="#d7eef2"><path d="M0 20 l0 -15 l1.08 0 l0 13.92 l5.1 0 l0 1.08 l-6.18 0 z M7.3 20 l0 -15 l1.28 0 l0 15 l-1.28 0 z M14.2 20.18 c-0.65334 0 -1.2335 -0.086738 -1.7401 -0.26008 s-0.93332 -0.45 -1.28 -0.83 s-0.60332 -0.87666 -0.76998 -1.49 s-0.23666 -1.3533 -0.21 -2.22 l1.2 0 c0 0.42666 0.02 0.87 0.06 1.33 s0.14666 0.88 0.32 1.26 s0.43668 0.69 0.79002 0.93 s0.84334 0.36 1.47 0.36 c0.53334 0 0.98668 -0.08 1.36 -0.24 s0.67668 -0.37334 0.91002 -0.64 s0.39668 -0.58 0.49002 -0.94 s0.14 -0.73334 0.14 -1.12 c0 -0.45334 -0.08334 -0.85 -0.25 -1.19 s-0.38666 -0.64334 -0.66 -0.91 s-0.59334 -0.50332 -0.96 -0.70998 s-0.75 -0.39 -1.15 -0.55 c-0.64 -0.25334 -1.2 -0.50334 -1.68 -0.75 s-0.87334 -0.52332 -1.18 -0.82998 s-0.53666 -0.66332 -0.69 -1.07 s-0.23 -0.90332 -0.23 -1.49 c0 -1.3333 0.35 -2.3266 1.05 -2.98 s1.7033 -0.98 3.01 -0.98 c1.1333 0 2.03 0.33 2.69 0.99 s0.99 1.65 0.99 2.97 l0 1.1 l-1.12 0 l0 -1.2 c0 -0.41334 -0.05 -0.79668 -0.15 -1.15 s-0.25666 -0.66334 -0.47 -0.93 s-0.48334 -0.47666 -0.81 -0.63 s-0.71666 -0.23 -1.17 -0.23 c-1.0667 0 -1.83 0.28 -2.29 0.84 s-0.67 1.3133 -0.63 2.26 c0.01334 0.41334 0.09 0.76668 0.23 1.06 s0.32666 0.55 0.56 0.77 s0.51334 0.41666 0.84 0.59 s0.69 0.34668 1.09 0.52002 c0.46666 0.2 0.93 0.41334 1.39 0.64 s0.89 0.50666 1.29 0.84 c0.4 0.34666 0.73 0.75 0.99 1.21 s0.39 1.03 0.39 1.71 c0 1.32 -0.33666 2.31 -1.01 2.97 s-1.61 0.99 -2.81 0.99 z M22.72 6.1 l0 13.9 l-1.16 0 l0 -13.9 l-3.26 0 l0 -1.1 l7.68 0 l0 1.1 l-3.26 0 z M27.080000000000002 20 l0 -15 l7.36 0 l0 1.16 l-6.32 0 l0 5.7 l6.26 0 l0 0.92 l-6.26 0 l0 6.06 l6.46 0 l0 1.16 l-7.5 0 z M42.68 20 l-5.8 -12.88 l0 12.88 l-1.1 0 l0 -15 l1.18 0 l5.8 12.3 l0.14 -12.3 l1.08 0 l0 15 l-1.3 0 z M55.72 18.92 c-0.78666 0.72 -1.8534 1.0801 -3.2 1.0801 l-3.42 0 l0 -15 l2.92 0 c0.8 0 1.4667 0.10334 2 0.31 s0.96 0.48666 1.28 0.84 s0.54334 0.76334 0.67 1.23 s0.19 0.95332 0.19 1.46 c0 0.54666 -0.16334 1.0633 -0.49 1.55 s-0.76332 0.94332 -1.31 1.37 c0.21334 0.13334 0.38 0.23668 0.5 0.31002 s0.23334 0.14334 0.34 0.21 c0.17334 0.14666 0.36668 0.32332 0.58002 0.52998 s0.41 0.44666 0.59 0.72 s0.33 0.58334 0.45 0.93 s0.18 0.73332 0.18 1.16 c0 0.74666 -0.11 1.3867 -0.33 1.92 s-0.53666 0.99334 -0.95 1.38 z M52.5 6 l-2.36 0.000039062 l0 5.4 l2.56 0 c0.36 0 0.69 -0.06666 0.99 -0.2 s0.56 -0.31668 0.78 -0.55002 s0.39334 -0.50334 0.52 -0.81 s0.19 -0.64 0.19 -1 c0 -0.25334 -0.03666 -0.54668 -0.11 -0.88002 s-0.21 -0.64334 -0.41 -0.93 s-0.47334 -0.53 -0.82 -0.73 s-0.79332 -0.3 -1.34 -0.3 z M52.620000000000005 12.4002 l-2.48 0.000039062 l0 6.54 l2.14 0 c0.44 0 0.88 -0.05334 1.32 -0.16 s0.84 -0.28666 1.2 -0.54 s0.65 -0.58668 0.87 -1 s0.33 -0.92668 0.33 -1.54 c0 -0.56 -0.08666 -1.05 -0.26 -1.47 s-0.41334 -0.76334 -0.72 -1.03 s-0.66666 -0.46666 -1.08 -0.6 s-0.85334 -0.2 -1.32 -0.2 z M58.400000000000006 15.940000000000001 l0 -1.52 l7.32 0 l0 1.52 l-7.32 0 z M74.24000000000001 16.22 c-0.01334 0.66666 -0.076582 1.25 -0.18992 1.75 s-0.30668 0.91334 -0.58002 1.24 s-0.63334 0.57 -1.08 0.73 s-1.01 0.24 -1.69 0.24 c-1.1733 0 -2.0266 -0.32666 -2.56 -0.98 s-0.8 -1.6467 -0.8 -2.98 l0 -7.4 c0 -1.3333 0.27 -2.3266 0.81 -2.98 s1.4633 -0.98 2.77 -0.98 c1.1733 0 2.0134 0.32666 2.52 0.98 s0.77332 1.6467 0.79998 2.98 l0.02 0.92 l-0.92 0 l-0.02 -1.16 c0 -0.33334 -0.03334 -0.67 -0.1 -1.01 s-0.18666 -0.65 -0.36 -0.93 s-0.41668 -0.50666 -0.73002 -0.68 s-0.73 -0.26 -1.25 -0.26 c-0.50666 0 -0.93 0.08 -1.27 0.24 s-0.61 0.38 -0.81 0.66 s-0.33666 0.61 -0.41 0.99 s-0.11 0.79 -0.11 1.23 l0.04 7.5 c0 0.92 0.17 1.64 0.51 2.16 s0.96334 0.78 1.87 0.78 c0.52 0 0.95 -0.07 1.29 -0.21 s0.60666 -0.33666 0.8 -0.59 s0.33 -0.56 0.41 -0.92 s0.12 -0.75334 0.12 -1.18 l0.02 -1.3 l0.92 0 z M83.38 20 l-1.1 -4.42 l-4.88 0 l-1.1 4.42 l-1 0 l4.14 -15 l0.86 0 l4.12 15 l-1.04 0 z M79.89999999999999 5.9399999999999995 l-2.26 8.68 l4.38 0 z M92.8 20 l-3.3 -6.22 l-3.06 0 l0 6.22 l-0.98 0 l0 -15 l3.4 0 c0.78666 0 1.46 0.11666 2.02 0.35 s1.02 0.55 1.38 0.95 s0.62666 0.86334 0.8 1.39 s0.26 1.0767 0.26 1.65 c0 0.97334 -0.25 1.85 -0.75 2.63 s-1.1567 1.35 -1.97 1.71 l3.52 6.32 l-1.32 0 z M88.72 5.92 l-2.28 -0.000019531 l0 6.84 l2.42 0 c0.68 0 1.24 -0.10334 1.68 -0.31 s0.78334 -0.47332 1.03 -0.79998 s0.42 -0.7 0.52 -1.12 s0.15 -0.85 0.15 -1.29 c0 -0.46666 -0.08 -0.9 -0.24 -1.3 s-0.39 -0.75 -0.69 -1.05 s-0.66666 -0.53666 -1.1 -0.71 s-0.93 -0.26 -1.49 -0.26 z M95.33999999999999 20 l0 -15 l7.36 0 l0 1.16 l-6.32 0 l0 5.7 l6.26 0 l0 0.92 l-6.26 0 l0 6.06 l6.46 0 l0 1.16 l-7.5 0 z M105.39999999999999 6.140000000000001 l0 6.06 l6.02 0 l0 1.06 l-6.02 0 l0 6.74 l-1.16 0 l0 -15 l7.28 0 l0 1.14 l-6.12 0 z M116.42 20.18 c-1.2267 0 -2.1768 -0.33336 -2.85 -1 s-1.01 -1.6533 -1.01 -2.96 l0 -11.22 l1.08 0 l0 11.16 c0 0.32 0.04334 0.65666 0.13 1.01 s0.23666 0.67334 0.45 0.96 s0.49668 0.52332 0.85002 0.70998 s0.79 0.28 1.31 0.28 c0.57334 0 1.0467 -0.08334 1.42 -0.25 s0.67334 -0.39666 0.9 -0.69 s0.38666 -0.64 0.48 -1.04 s0.14 -0.82666 0.14 -1.28 l0 -10.86 l1.06 0 l0 11.22 c0 1.3333 -0.32334 2.3266 -0.97 2.98 s-1.6433 0.98 -2.99 0.98 z M122.24000000000001 20 l0 -15 l1.08 0 l0 13.92 l5.1 0 l0 1.08 l-6.18 0 z"></path></g>
			</g>
		</svg>
	